<svg width="250" height="250" xmlns="http://www.w3.org/2000/svg">
 <metadata id="metadata8">image/svg+xml</metadata>
 <defs>
  <clipPath clipPathUnits="userSpaceOnUse" id="clipPath18">
   <path d="m3.39891,295.354353l300,0l0,-300l-300,0l0,300z" id="path16"/>
  </clipPath>
 </defs>
 <g>
  <title>background</title>
  <rect fill="none" id="canvas_background" height="252" width="252" y="-1" x="-1"/>
 </g>
 <g>
  <title>Layer 1</title>
  <g id="g10" transform="matrix(0.814097035184403,0,0,-0.814097035184403,-0.1327434931260311,243.81017612800764) ">
   <g id="g12">
    <g id="g14" clip-path="url(#clipPath18)">
     <g id="g20">
      <path fill="#ffffff" fill-rule="nonzero" d="m153.707412,-3.472447c-82.387,0 -149.414,67.027 -149.414,149.413c0,82.387 67.027,149.414 149.414,149.414c82.387,0 149.414,-67.027 149.414,-149.414c0,-82.386 -67.027,-149.413 -149.414,-149.413" id="path22"/>
     </g>
     <g id="g24">
      <path fill="#553457" fill-rule="nonzero" d="m153.707412,11.531254c-74.114,0 -134.41,60.295 -134.41,134.409c0,3.727 0.159,7.416 0.458,11.067c0.174,-0.526 0.368,-1.032 0.591,-1.509c2.165,-3.316 12.351,-17.208 28.27,-12.698c10.678,3.404 14.526,11.293 14.526,11.293l0.003,0.01c-0.239,-2.698 -0.368,-5.419 -0.368,-8.163c0,-44.005 30.89,-81.149 73.804,-89.297c4.107,-4.886 10.259,-7.998 17.126,-7.998c6.867,0 13.019,3.112 17.126,7.998c42.912,8.148 73.804,45.293 73.804,89.297c0,1.316 -0.039,2.625 -0.094,3.931c4.969,-5.941 12.405,-9.616 20.558,-9.616c9.64,0 18.105,5.117 22.829,12.776c0.123,-2.348 0.187,-4.712 0.187,-7.091c0,-74.114 -60.296,-134.409 -134.41,-134.409m19.124,62.732c-1.794,0 -3.247,-1.454 -3.247,-3.248c0,-8.754 -7.123,-15.875 -15.877,-15.875c-8.754,0 -15.877,7.121 -15.877,15.875c0,1.794 -1.454,3.248 -3.247,3.248c-1.794,0 -3.248,-1.454 -3.248,-3.248c0,-3.299 0.724,-6.432 2.012,-9.254c-38.748,9.257 -66.24,43.664 -66.24,84.179c0,29.054 14.272,55.744 38.308,71.897c3.745,-7.703 17.586,-30.926 48.292,-30.926c30.705,0 45.157,22.853 49.084,30.386c23.539,-16.206 37.516,-42.696 37.516,-71.357c0,-40.513 -27.493,-74.922 -66.24,-84.179c1.288,2.822 2.012,5.955 2.012,9.254c0,1.794 -1.454,3.248 -3.248,3.248m-19.124,212.582c-77.695,0 -140.905,-63.209 -140.905,-140.905c0,-77.694 63.21,-140.904 140.905,-140.904c77.695,0 140.905,63.21 140.905,140.904c0,77.696 -63.21,140.905 -140.905,140.905" id="path26"/>
     </g>
     <g id="g28">
      <path fill="#ffc85e" fill-rule="nonzero" d="m46.139709,118.930853l2.99,0.629c0.42,0.088 0.822,-0.186 0.911,-0.606c0.089,-0.419 -0.171,-0.832 -0.59,-0.921l-7.542,-1.586c-0.42,-0.088 -0.82,0.173 -0.909,0.593c-0.089,0.419 0.167,0.844 0.588,0.933l3.167,0.666l-0.881,4.184l-3.168,-0.666c-0.418,-0.087 -0.822,0.186 -0.911,0.606c-0.087,0.42 0.174,0.819 0.594,0.908l7.542,1.587c0.421,0.088 0.822,-0.186 0.911,-0.606c0.089,-0.42 -0.173,-0.819 -0.592,-0.908l-2.99,-0.629l0.88,-4.184z" id="path30"/>
     </g>
     <g id="g32">
      <path fill="#ffc85e" fill-rule="nonzero" d="m45.363811,109.758254c-0.406,-0.753 -0.469,-1.542 -0.184,-2.392c0.277,-0.826 0.803,-1.417 1.577,-1.76c0.785,-0.341 1.616,-0.364 2.501,-0.066c0.876,0.293 1.525,0.812 1.935,1.552c0.408,0.74 0.474,1.53 0.197,2.355c-0.286,0.85 -0.812,1.441 -1.59,1.797c-0.772,0.345 -1.603,0.368 -2.478,0.074c-0.899,-0.301 -1.548,-0.82 -1.958,-1.56m5.038,2.881c1.131,-0.553 1.909,-1.444 2.326,-2.689c0.419,-1.244 0.334,-2.424 -0.233,-3.559c-0.564,-1.135 -1.484,-1.909 -2.74,-2.33c-1.27,-0.426 -2.469,-0.361 -3.604,0.204c-1.136,0.565 -1.914,1.456 -2.33,2.7c-0.419,1.244 -0.334,2.424 0.236,3.547c0.573,1.111 1.493,1.885 2.762,2.31c1.258,0.421 2.456,0.357 3.583,-0.183" id="path34"/>
     </g>
     <g id="g36">
      <path fill="#ffc85e" fill-rule="nonzero" d="m54.531211,98.867751c-0.812,0.261 -1.655,0.192 -2.512,-0.212c-0.843,-0.4 -1.42,-1.004 -1.727,-1.809c-0.292,-0.812 -0.245,-1.638 0.15,-2.47c0.343,-0.727 0.861,-1.243 1.562,-1.543l1.208,0.572l-0.649,1.372c-0.172,0.364 -0.019,0.766 0.321,0.927c0.364,0.172 0.784,0.013 0.945,-0.328l0.954,-2.017c0.194,-0.41 0.033,-0.889 -0.389,-1.088l-1.641,-0.777c-0.387,-0.183 -0.829,-0.162 -1.321,0.063c-1.041,0.469 -1.819,1.264 -2.347,2.379c-0.55,1.16 -0.611,2.322 -0.208,3.504c0.415,1.186 1.233,2.062 2.466,2.645c1.253,0.594 2.475,0.684 3.638,0.258c1.17,-0.438 2.045,-1.257 2.622,-2.477c0.55,-1.161 0.611,-2.324 0.175,-3.463c-0.213,-0.489 -0.581,-0.591 -0.991,-0.425c-0.395,0.171 -0.499,0.509 -0.309,1.016c0.288,0.696 0.235,1.446 -0.141,2.243c-0.383,0.81 -0.988,1.356 -1.806,1.63" id="path38"/>
     </g>
     <g id="g40">
      <path fill="#ffc85e" fill-rule="nonzero" d="m61.093811,86.817557l-3.82,-0.733l1.45,-2.357l2.37,3.09zm-3.296,-4.314l-2.034,3.309l-1.584,-0.303c-0.425,-0.078 -0.822,0.196 -0.9,0.621c-0.089,0.417 0.167,0.819 0.592,0.897l7.825,1.412c0.57,0.091 0.987,-0.065 1.245,-0.486c0.264,-0.432 0.22,-0.902 -0.152,-1.39l-4.753,-6.309c-0.262,-0.343 -0.736,-0.391 -1.068,-0.122c-0.345,0.261 -0.41,0.74 -0.148,1.083l0.977,1.288z" id="path42"/>
     </g>
     <g id="g44">
      <path fill="#ffc85e" fill-rule="nonzero" d="m67.051712,79.253851l-2.516,-1.942l1.055,-1.367c0.863,-1.119 1.713,-1.349 2.556,-0.699c0.831,0.642 0.825,1.522 -0.04,2.642l-1.055,1.366zm-2.486,-4.296l-1.151,1.489l-1.9,-1.466c-0.339,-0.262 -0.821,-0.19 -1.083,0.148c-0.26,0.339 -0.198,0.813 0.14,1.074l6,4.63c0.37,0.286 0.869,0.213 1.146,-0.147l1.617,-2.096c1.309,-1.696 1.244,-3.417 -0.234,-4.558c-1.06,-0.817 -2.241,-0.878 -3.324,-0.22l-0.89,-2.392c-0.235,-0.526 -0.586,-0.665 -1.011,-0.518c-0.486,0.183 -0.636,0.526 -0.448,1.047l1.138,3.009z" id="path46"/>
     </g>
     <g id="g48">
      <path fill="#ffc85e" fill-rule="nonzero" d="m73.597511,72.133055c0.338,0.321 0.844,0.3 1.159,-0.03l3.454,-3.634c0.26,-0.273 0.258,-0.723 -0.034,-1.001c-0.272,-0.259 -0.714,-0.249 -0.991,0.043l-2.945,3.099l-1.704,-1.621l2.801,-2.947c0.26,-0.273 0.258,-0.723 -0.034,-1.001c-0.292,-0.277 -0.733,-0.248 -0.991,0.025l-2.804,2.947l-1.835,-1.746l2.945,-3.097c0.277,-0.292 0.266,-0.733 -0.006,-0.993c-0.292,-0.277 -0.742,-0.257 -1.002,0.017l-3.455,3.633c-0.313,0.33 -0.311,0.835 0.03,1.158l5.412,5.148z" id="path50"/>
     </g>
     <g id="g52">
      <path fill="#ffc85e" fill-rule="nonzero" d="m77.327011,59.661055c0.419,0.068 0.835,-0.222 0.888,-0.661c0.04,-0.29 0.087,-0.536 0.129,-0.726c0.099,-0.36 0.455,-1.042 1.047,-1.55c0.837,-0.719 1.63,-0.75 2.095,-0.209c0.448,0.522 0.361,1.179 -0.286,1.958l-0.719,0.856c-1.105,1.362 -1.264,2.712 -0.308,3.824c0.507,0.591 1.15,0.86 1.934,0.818c0.787,-0.041 1.51,-0.354 2.189,-0.938c0.363,-0.313 0.647,-0.641 0.875,-0.992c0.23,-0.351 0.37,-0.625 0.442,-0.841c0.072,-0.215 0.146,-0.468 0.207,-0.776c0.087,-0.435 -0.195,-0.843 -0.613,-0.911c-0.419,-0.069 -0.808,0.215 -0.875,0.632c-0.134,0.782 -0.457,1.402 -0.998,1.867c-0.789,0.677 -1.548,0.628 -1.954,0.155c-0.423,-0.492 -0.311,-1.137 0.338,-1.916l0.588,-0.711c1.283,-1.512 1.351,-2.888 0.378,-4.02c-0.507,-0.591 -1.158,-0.87 -1.951,-0.838c-0.786,0.042 -1.588,0.405 -2.404,1.107c-0.393,0.338 -0.706,0.709 -0.958,1.114c-0.243,0.395 -0.395,0.716 -0.458,0.941c-0.055,0.234 -0.123,0.534 -0.189,0.896c-0.086,0.436 0.184,0.852 0.603,0.921" id="path54"/>
     </g>
     <g id="g56">
      <path fill="#ffc85e" fill-rule="nonzero" d="m95.562408,52.710452l-1.677,-2.703l1.468,-0.909c1.203,-0.745 2.08,-0.663 2.64,0.242c0.554,0.894 0.239,1.716 -0.964,2.461l-1.467,0.909zm2.37,0.18c1.82,-1.128 2.366,-2.764 1.381,-4.352c-0.992,-1.6 -2.73,-1.867 -4.54,-0.746l-1.632,1.013l-1.266,-2.041c-0.224,-0.365 -0.7,-0.468 -1.066,-0.241c-0.363,0.225 -0.471,0.69 -0.247,1.054l3.994,6.444c0.247,0.397 0.74,0.503 1.127,0.264l2.249,-1.395z" id="path58"/>
     </g>
     <g id="g60">
      <path fill="#ffc85e" fill-rule="nonzero" d="m105.594512,46.253554l-2.85,-2.643l2.476,-1.231l0.374,3.874zm-0.51,-5.402l-3.477,1.728l-1.182,-1.095c-0.32,-0.29 -0.802,-0.268 -1.091,0.05c-0.298,0.308 -0.292,0.783 0.025,1.075l5.888,5.339c0.436,0.378 0.871,0.467 1.313,0.247c0.453,-0.225 0.664,-0.649 0.607,-1.259l-0.691,-7.865c-0.038,-0.43 -0.417,-0.721 -0.84,-0.67c-0.431,0.04 -0.74,0.411 -0.7,0.84l0.148,1.61z" id="path62"/>
     </g>
     <g id="g64">
      <path fill="#ffc85e" fill-rule="nonzero" d="m114.632911,43.033553l-1.099,-2.986l1.619,-0.599c1.33,-0.489 2.171,-0.232 2.541,0.768c0.364,0.987 -0.112,1.729 -1.439,2.22l-1.622,0.597zm1.8,-5.564l-1.768,0.652l-0.831,-2.256c-0.148,-0.402 -0.594,-0.597 -0.998,-0.449c-0.401,0.148 -0.6,0.582 -0.452,0.984l2.624,7.118c0.16,0.44 0.623,0.643 1.05,0.486l0.865,-0.32c2.01,-0.741 2.873,-2.236 2.226,-3.99c-0.463,-1.256 -1.433,-1.937 -2.7,-1.955l0.516,-2.502c0.082,-0.57 -0.142,-0.876 -0.581,-0.977c-0.508,-0.104 -0.819,0.108 -0.937,0.65l0.986,2.559z" id="path66"/>
     </g>
     <g id="g68">
      <path fill="#ffc85e" fill-rule="nonzero" d="m127.113311,38.332552l-2.222,-3.187l2.681,-0.676l-0.459,3.863zm0.651,-5.384l-3.763,0.948l-0.92,-1.32c-0.249,-0.352 -0.725,-0.433 -1.078,-0.184c-0.355,0.237 -0.453,0.703 -0.203,1.055l4.615,6.468c0.345,0.461 0.751,0.64 1.229,0.52c0.49,-0.124 0.786,-0.493 0.86,-1.101l1,-7.828c0.053,-0.428 -0.254,-0.793 -0.678,-0.833c-0.43,-0.053 -0.81,0.244 -0.863,0.672l-0.199,1.603z" id="path70"/>
     </g>
     <g id="g72">
      <path fill="#ffc85e" fill-rule="nonzero" d="m142.26831,35.045954l-0.474,-5.633c-0.016,-1.107 -1.725,-0.963 -1.541,0.13l0.617,7.329c0.055,0.673 0.502,1.014 1.072,0.966c0.349,-0.03 0.597,-0.181 0.757,-0.455l3.759,-6.459l0.478,5.659c0.028,1.107 1.736,0.962 1.554,-0.131l-0.617,-7.329c-0.057,-0.673 -0.503,-1.014 -1.072,-0.966c-0.351,0.029 -0.598,0.18 -0.759,0.454l-3.774,6.435z" id="path74"/>
     </g>
     <g id="g76">
      <path fill="#ffc85e" fill-rule="nonzero" d="m160.383117,32.226553c0.07,-2.714 -1.321,-4.217 -3.569,-4.274c-2.245,-0.057 -3.71,1.373 -3.78,4.087l-0.11,4.362c-0.011,0.429 0.33,0.774 0.759,0.786c0.429,0.011 0.786,-0.305 0.799,-0.734l0.11,-4.388c0.049,-1.843 0.772,-2.747 2.188,-2.711c1.415,0.036 2.091,0.976 2.045,2.832l-0.11,4.363c-0.013,0.428 0.33,0.774 0.759,0.785c0.427,0.011 0.786,-0.317 0.797,-0.746l0.112,-4.362z" id="path78"/>
     </g>
     <g id="g80">
      <path fill="#ffc85e" fill-rule="nonzero" d="m164.713104,36.858855c-0.061,0.464 0.254,0.858 0.706,0.918l4.973,0.65c0.374,0.049 0.736,-0.218 0.788,-0.618c0.049,-0.373 -0.219,-0.723 -0.619,-0.775l-4.239,-0.555l0.304,-2.332l4.034,0.528c0.372,0.049 0.736,-0.218 0.789,-0.617c0.051,-0.4 -0.233,-0.738 -0.607,-0.787l-4.032,-0.527l0.33,-2.513l4.237,0.555c0.4,0.052 0.751,-0.217 0.799,-0.591c0.051,-0.399 -0.23,-0.751 -0.602,-0.799l-4.975,-0.65c-0.45,-0.06 -0.856,0.242 -0.918,0.705l-0.968,7.408z" id="path82"/>
     </g>
     <g id="g84">
      <path fill="#ffc85e" fill-rule="nonzero" d="m176.977905,32.545855c0.19,0.38 0.672,0.548 1.057,0.331c0.26,-0.139 0.486,-0.245 0.666,-0.323c0.351,-0.131 1.112,-0.244 1.871,-0.063c1.076,0.256 1.569,0.881 1.404,1.576c-0.158,0.671 -0.742,0.988 -1.755,0.92l-1.118,-0.078c-1.755,-0.097 -2.943,0.571 -3.281,2c-0.182,0.76 -0.022,1.438 0.473,2.052c0.497,0.612 1.176,1.013 2.049,1.222c0.469,0.111 0.9,0.147 1.321,0.125c0.419,-0.02 0.723,-0.068 0.941,-0.137c0.218,-0.069 0.465,-0.156 0.751,-0.289c0.403,-0.185 0.568,-0.653 0.378,-1.032c-0.19,-0.38 -0.649,-0.529 -1.027,-0.339c-0.713,0.352 -1.406,0.455 -2.102,0.29c-1.013,-0.241 -1.421,-0.886 -1.275,-1.493c0.15,-0.633 0.738,-0.92 1.753,-0.854l0.922,0.059c1.981,0.151 3.137,-0.604 3.482,-2.059c0.182,-0.76 0.025,-1.451 -0.47,-2.077c-0.494,-0.612 -1.26,-1.048 -2.31,-1.297c-0.506,-0.121 -0.992,-0.156 -1.468,-0.122c-0.463,0.037 -0.814,0.101 -1.034,0.182c-0.222,0.094 -0.505,0.215 -0.837,0.376c-0.404,0.184 -0.581,0.65 -0.391,1.03" id="path86"/>
     </g>
     <g id="g88">
      <path fill="#ffc85e" fill-rule="nonzero" d="m191.475311,43.991354c0.983,0.41 1.486,-1.036 0.459,-1.324l-1.985,-0.69l2.298,-6.606c0.139,-0.405 -0.081,-0.838 -0.484,-0.979c-0.404,-0.14 -0.836,0.067 -0.975,0.472l-2.296,6.606l-1.926,-0.669c-0.983,-0.411 -1.487,1.036 -0.459,1.323l5.368,1.867z" id="path90"/>
     </g>
     <g id="g92">
      <path fill="#ffc85e" fill-rule="nonzero" d="m197.754608,45.096053l1.345,-2.881l1.564,0.73c1.281,0.597 1.692,1.375 1.241,2.34c-0.444,0.953 -1.302,1.139 -2.585,0.54l-1.565,-0.729zm2.082,-4.097l-0.139,-0.066l1.013,-2.176c0.182,-0.387 0.006,-0.841 -0.381,-1.023c-0.389,-0.181 -0.837,-0.017 -1.017,0.371l-3.203,6.868c-0.199,0.423 -0.017,0.895 0.395,1.086l2.4,1.12c1.939,0.904 3.605,0.464 4.396,-1.23c0.564,-1.211 0.363,-2.378 -0.514,-3.289l2.137,-1.394c0.461,-0.344 0.523,-0.717 0.286,-1.099c-0.286,-0.434 -0.653,-0.505 -1.121,-0.208l-4.252,1.04z" id="path94"/>
     </g>
     <g id="g96">
      <path fill="#ffc85e" fill-rule="nonzero" d="m210.786804,45.614054c0.822,-0.229 1.607,-0.118 2.372,0.347c0.744,0.451 1.203,1.095 1.368,1.925c0.159,0.84 -0.002,1.654 -0.486,2.453c-0.478,0.789 -1.127,1.306 -1.939,1.543c-0.812,0.235 -1.596,0.124 -2.338,-0.327c-0.768,-0.465 -1.227,-1.109 -1.402,-1.945c-0.165,-0.829 -0.006,-1.643 0.474,-2.431c0.49,-0.81 1.139,-1.328 1.951,-1.565m-3.918,4.276c0.29,1.224 0.988,2.179 2.108,2.86c1.121,0.68 2.29,0.858 3.52,0.557c1.231,-0.302 2.189,-1.027 2.876,-2.159c0.693,-1.143 0.896,-2.327 0.596,-3.557c-0.302,-1.232 -0.998,-2.186 -2.118,-2.867c-1.123,-0.681 -2.29,-0.858 -3.51,-0.551c-1.209,0.315 -2.167,1.04 -2.861,2.183c-0.687,1.133 -0.89,2.316 -0.611,3.534" id="path98"/>
     </g>
     <g id="g100">
      <path fill="#ffc85e" fill-rule="nonzero" d="m220.588516,51.917655c0.017,0.423 0.387,0.773 0.825,0.735c0.293,-0.019 0.543,-0.024 0.737,-0.02c0.375,0.025 1.115,0.235 1.73,0.711c0.873,0.673 1.065,1.445 0.63,2.01c-0.421,0.544 -1.08,0.593 -1.975,0.115l-0.985,-0.53c-1.556,-0.807 -2.909,-0.689 -3.806,0.473c-0.475,0.616 -0.611,1.299 -0.41,2.06c0.199,0.76 0.653,1.405 1.362,1.953c0.38,0.292 0.759,0.503 1.148,0.656c0.391,0.153 0.687,0.236 0.913,0.262c0.226,0.027 0.489,0.048 0.801,0.045c0.444,-0.001 0.787,-0.361 0.77,-0.784c-0.019,-0.424 -0.374,-0.747 -0.797,-0.73c-0.793,0.028 -1.465,-0.163 -2.03,-0.598c-0.822,-0.635 -0.928,-1.39 -0.547,-1.882c0.395,-0.514 1.05,-0.534 1.945,-0.057l0.814,0.432c1.742,0.95 3.101,0.738 4.013,-0.444c0.475,-0.616 0.617,-1.31 0.427,-2.08c-0.201,-0.761 -0.719,-1.472 -1.571,-2.129c-0.41,-0.317 -0.84,-0.55 -1.286,-0.714c-0.435,-0.156 -0.78,-0.242 -1.012,-0.258c-0.244,-0.006 -0.548,-0.012 -0.918,-0.002c-0.444,0.001 -0.797,0.352 -0.778,0.776" id="path102"/>
     </g>
     <g id="g104">
      <path fill="#ffc85e" fill-rule="nonzero" d="m232.984313,69.369757l1.704,-3.49l1.892,2.013l-3.596,1.477zm1.421,-0.572l0.941,-4.301l0.704,-1.446c0.186,-0.39 0.025,-0.844 -0.364,-1.03c-0.378,-0.196 -0.833,-0.053 -1.019,0.335l-3.404,7.173c-0.237,0.525 -0.195,0.966 0.144,1.325c0.347,0.369 0.812,0.447 1.378,0.217l7.32,-2.933c0.399,-0.161 0.571,-0.606 0.397,-0.996c-0.16,-0.4 -0.604,-0.588 -1.004,-0.425l-5.093,2.081z" id="path106"/>
     </g>
     <g id="g108">
      <path fill="#ffc85e" fill-rule="nonzero" d="m248.566314,78.693556c0.949,-0.595 -0.076,-1.968 -0.924,-1.239l-4.184,3.121l1.869,-3.921c0.159,-0.33 0.129,-0.631 -0.08,-0.911c-0.218,-0.292 -0.516,-0.41 -0.878,-0.351l-4.279,0.667l4.182,-3.121c0.949,-0.595 -0.076,-1.968 -0.924,-1.238l-5.869,4.378c-0.541,0.403 -0.613,0.96 -0.271,1.417c0.241,0.323 0.594,0.449 1.07,0.369l5.317,-0.906l-2.382,4.84c-0.212,0.432 -0.193,0.806 0.048,1.129c0.341,0.458 0.895,0.547 1.436,0.144l5.869,-4.378z" id="path110"/>
     </g>
     <g id="g112">
      <path fill="#ffc85e" fill-rule="nonzero" d="m252.367813,84.624053c0.366,-0.223 0.471,-0.699 0.249,-1.066c-0.224,-0.365 -0.689,-0.477 -1.055,-0.254l-6.581,4.016c-0.368,0.223 -0.474,0.698 -0.25,1.065c0.224,0.366 0.687,0.479 1.055,0.255l6.582,-4.016z" id="path114"/>
     </g>
     <g id="g116">
      <path fill="#ffc85e" fill-rule="nonzero" d="m250.422714,93.813551c0.298,-0.801 0.875,-1.421 1.723,-1.843c0.837,-0.416 1.668,-0.495 2.493,-0.238c0.818,0.274 1.438,0.822 1.848,1.648c0.359,0.721 0.444,1.447 0.245,2.184l-1.197,0.595l-0.676,-1.361c-0.18,-0.36 -0.592,-0.488 -0.928,-0.321c-0.362,0.18 -0.497,0.609 -0.328,0.946l0.994,2c0.202,0.407 0.678,0.576 1.097,0.368l1.628,-0.809c0.382,-0.191 0.64,-0.551 0.769,-1.078c0.275,-1.109 0.131,-2.213 -0.416,-3.317c-0.573,-1.151 -1.448,-1.92 -2.626,-2.335c-1.19,-0.41 -2.387,-0.308 -3.607,0.3c-1.245,0.618 -2.072,1.522 -2.457,2.7c-0.38,1.19 -0.279,2.387 0.322,3.596c0.573,1.151 1.448,1.92 2.615,2.282c0.516,0.135 0.825,-0.091 0.947,-0.514c0.112,-0.418 -0.091,-0.709 -0.609,-0.873c-0.725,-0.205 -1.281,-0.711 -1.674,-1.502c-0.398,-0.802 -0.455,-1.616 -0.163,-2.428" id="path118"/>
     </g>
     <g id="g120">
      <path fill="#ffc85e" fill-rule="nonzero" d="m259.824722,103.347853c0.784,0.339 1.324,0.918 1.628,1.761c0.294,0.819 0.247,1.609 -0.146,2.358c-0.406,0.753 -1.042,1.286 -1.924,1.602c-0.867,0.312 -1.698,0.307 -2.478,-0.02c-0.78,-0.328 -1.319,-0.906 -1.613,-1.725c-0.302,-0.844 -0.256,-1.633 0.133,-2.395c0.394,-0.748 1.03,-1.281 1.899,-1.593c0.892,-0.32 1.721,-0.315 2.501,0.012m-5.736,0.86c-0.543,1.135 -0.603,2.316 -0.159,3.55c0.444,1.235 1.242,2.107 2.387,2.647c1.146,0.542 2.347,0.579 3.595,0.13c1.258,-0.452 2.16,-1.245 2.7,-2.392c0.541,-1.147 0.6,-2.327 0.156,-3.561c-0.444,-1.235 -1.241,-2.108 -2.383,-2.636c-1.139,-0.516 -2.338,-0.554 -3.598,-0.101c-1.248,0.448 -2.148,1.242 -2.698,2.363" id="path122"/>
     </g>
     <g id="g124">
      <path fill="#ffc85e" fill-rule="nonzero" d="m263.495101,114.423254c-0.254,0.341 -0.186,0.847 0.18,1.094c0.241,0.169 0.437,0.324 0.587,0.448c0.275,0.256 0.719,0.885 0.899,1.644c0.256,1.076 -0.08,1.797 -0.776,1.963c-0.672,0.159 -1.216,-0.22 -1.611,-1.154l-0.433,-1.034c-0.704,-1.61 -1.833,-2.371 -3.263,-2.032c-0.759,0.181 -1.294,0.629 -1.619,1.347c-0.324,0.719 -0.377,1.506 -0.169,2.38c0.112,0.468 0.272,0.871 0.48,1.235c0.207,0.366 0.389,0.618 0.547,0.779c0.159,0.163 0.349,0.346 0.596,0.541c0.347,0.279 0.84,0.215 1.093,-0.126c0.252,-0.341 0.18,-0.818 -0.162,-1.071c-0.635,-0.478 -1.038,-1.05 -1.203,-1.746c-0.241,-1.012 0.152,-1.666 0.759,-1.811c0.634,-0.15 1.156,0.247 1.552,1.182l0.361,0.85c0.757,1.838 1.952,2.53 3.406,2.185c0.759,-0.181 1.307,-0.633 1.645,-1.353c0.324,-0.719 0.368,-1.599 0.118,-2.649c-0.12,-0.506 -0.306,-0.956 -0.551,-1.365c-0.241,-0.398 -0.455,-0.681 -0.628,-0.841c-0.184,-0.156 -0.419,-0.355 -0.713,-0.579c-0.347,-0.278 -0.841,-0.227 -1.095,0.113" id="path126"/>
     </g>
     <g id="g128">
      <path fill="#ffc85e" fill-rule="nonzero" d="m49.055309,170.441359l5.801,-1.186c1.662,-0.34 2.466,-1.601 2.168,-3.059c-0.298,-1.459 -1.531,-2.303 -3.195,-1.962l-5.802,1.186l-13.332,-3.672c-1.734,-0.352 -2.803,0.468 -3.102,1.943c-0.293,1.332 0.527,2.579 2.165,2.986l9.322,2.371l-7.637,5.873c-1.346,1.017 -1.611,2.485 -0.82,3.595c0.854,1.24 2.161,1.574 3.616,0.569l10.816,-8.644z" id="path130"/>
     </g>
     <g id="g132">
      <path fill="#ffc85e" fill-rule="nonzero" d="m56.913909,188.589049c1.922,0.507 3.366,1.759 4.376,3.771c0.982,1.95 1.125,3.855 0.368,5.67c-0.737,1.845 -2.053,3.242 -4.002,4.222c-1.888,0.95 -3.81,1.14 -5.746,0.602c-1.939,-0.538 -3.383,-1.713 -4.333,-3.601c-0.995,-1.981 -1.139,-3.887 -0.414,-5.763c0.74,-1.845 2.053,-3.242 3.973,-4.208c1.949,-0.979 3.856,-1.2 5.778,-0.693m-14.527,3.191c-1.061,3.21 -0.776,6.401 0.795,9.527c1.588,3.158 3.979,5.291 7.203,6.384c3.195,1.108 6.4,0.853 9.62,-0.764c3.25,-1.634 5.368,-4.055 6.415,-7.296c1.015,-3.225 0.729,-6.416 -0.859,-9.574c-1.571,-3.126 -3.962,-5.259 -7.14,-6.336c-3.209,-1.062 -6.416,-0.808 -9.666,0.826c-3.22,1.618 -5.336,4.04 -6.368,7.233" id="path134"/>
     </g>
     <g id="g136">
      <path fill="#ffc85e" fill-rule="nonzero" d="m80.41381,245.210753c1.197,0.999 2.584,0.85 3.472,-0.214c0.866,-1.038 0.765,-2.43 -0.432,-3.429l-3.67,-3.063l10.857,-13.004c1.086,-1.304 0.902,-2.812 -0.241,-3.767c-1.144,-0.954 -2.635,-0.844 -3.721,0.459l-10.857,13.004l-3.643,-3.041c-1.197,-0.999 -2.586,-0.85 -3.45,0.188c-0.888,1.063 -0.789,2.455 0.408,3.454l11.277,9.413z" id="path138"/>
     </g>
     <g id="g140">
      <path fill="#ffc85e" fill-rule="nonzero" d="m103.42321,242.720152l2.285,-4.782l9.532,4.555c1.406,0.671 2.714,0.183 3.31,-1.067c0.584,-1.219 0.142,-2.543 -1.264,-3.216l-11.22,-5.359c-1.876,-0.897 -3.491,-0.326 -4.387,1.549l-7.616,15.939c-0.896,1.875 -0.323,3.491 1.55,4.387l11.22,5.36c1.406,0.673 2.715,0.184 3.311,-1.065c0.584,-1.219 0.142,-2.544 -1.266,-3.216l-9.531,-4.554l2.061,-4.313l9.032,4.316c1.374,0.657 2.683,0.168 3.265,-1.051c0.551,-1.155 0.124,-2.511 -1.25,-3.168l-9.032,-4.315z" id="path142"/>
     </g>
     <g id="g144">
      <path fill="#ffc85e" fill-rule="nonzero" d="m149.245315,262.087752l-2.679,-8.054l6.024,0.252l-3.345,7.802zm-3.527,4.674c0.525,1.582 1.601,2.39 3.193,2.456c1.628,0.069 2.768,-0.646 3.419,-2.145l8.203,-18.591c0.653,-1.499 -0.021,-2.81 -1.387,-3.319c-1.469,-0.512 -2.567,-0.004 -3.29,1.562l-1.412,3.061l-9.383,-0.393l-1.114,-3.168c-0.525,-1.583 -1.783,-2.191 -3.151,-1.832c-1.403,0.392 -2.184,1.643 -1.659,3.19l6.581,19.179z" id="path146"/>
     </g>
     <g id="g148">
      <path fill="#ffc85e" fill-rule="nonzero" d="m176.614212,262.270552l-3.461,-14.34l2.019,-0.488c5.892,-1.422 9.413,0.329 10.592,5.209c1.129,4.679 -1.272,7.717 -7.163,9.139l-1.987,0.48zm-6.393,-18.513c-2.02,0.487 -2.914,1.95 -2.426,3.97l4.144,17.168c0.489,2.019 1.952,2.913 3.971,2.426l4.577,-1.106c3.368,-0.813 6.161,-2.377 8.297,-4.745c2.177,-2.343 3.046,-5.973 2.063,-10.046c-1,-4.14 -3.429,-6.974 -6.436,-8.208c-2.987,-1.166 -6.279,-1.37 -9.611,-0.564l-4.579,1.105z" id="path150"/>
     </g>
     <g id="g152">
      <path fill="#ffc85e" fill-rule="nonzero" d="m203.065612,239.48326c0.37,-1.953 1.516,-3.481 3.45,-4.631c1.876,-1.117 3.764,-1.395 5.629,-0.77c1.892,0.608 3.378,1.819 4.492,3.694c1.081,1.816 1.406,3.718 1.007,5.688c-0.4,1.971 -1.468,3.493 -3.284,4.573c-1.905,1.133 -3.795,1.411 -5.717,0.822c-1.892,-0.607 -3.378,-1.819 -4.478,-3.663c-1.114,-1.876 -1.469,-3.761 -1.099,-5.713m4.209,14.26c3.278,0.831 6.438,0.32 9.445,-1.468c3.036,-1.806 4.994,-4.341 5.856,-7.634c0.88,-3.264 0.398,-6.443 -1.444,-9.539c-1.858,-3.125 -4.423,-5.065 -7.729,-5.879c-3.288,-0.785 -6.449,-0.274 -9.485,1.532c-3.006,1.789 -4.964,4.323 -5.814,7.569c-0.831,3.275 -0.351,6.455 1.509,9.58c1.842,3.096 4.407,5.036 7.662,5.839" id="path154"/>
     </g>
     <g id="g156">
      <path fill="#ffc85e" fill-rule="nonzero" d="m237.498214,229.724959l-5.157,-4.832l2.582,-2.755c2.393,-2.552 4.486,-3.012 6.228,-1.377c1.745,1.634 1.368,3.606 -1.072,6.209l-2.581,2.755zm-8.618,-8.077l-3.74,-3.506c-1.239,-1.161 -2.755,-1.062 -3.774,0.024c-1.019,1.087 -0.993,2.581 0.243,3.742l13.42,12.577c1.518,1.421 3.23,1.366 4.651,-0.15l4.478,-4.777c1.966,-2.097 2.998,-4.262 3.121,-6.521c0.122,-2.258 -0.726,-4.241 -2.546,-5.946c-1.844,-1.729 -3.928,-2.495 -6.273,-2.271c-2.345,0.223 -4.463,1.37 -6.383,3.416l-3.197,3.412z" id="path158"/>
     </g>
     <g id="g160">
      <path fill="#ffc85e" fill-rule="nonzero" d="m265.24562,198.782851c0.751,-1.367 0.338,-2.701 -0.877,-3.368c-1.184,-0.65 -2.531,-0.284 -3.282,1.081l-2.302,4.191l-14.846,-8.158c-1.487,-0.818 -2.933,-0.347 -3.65,0.959c-0.716,1.305 -0.323,2.746 1.165,3.564l14.845,8.158l-2.286,4.159c-0.751,1.367 -0.336,2.7 0.848,3.351c1.213,0.667 2.56,0.301 3.313,-1.065l7.072,-12.872z" id="path162"/>
     </g>
     <g id="g164">
      <path fill="#ffc85e" fill-rule="nonzero" d="m255.143814,175.93315c-1.137,-1.628 -1.431,-3.516 -0.903,-5.704c0.512,-2.121 1.635,-3.666 3.383,-4.563c1.755,-0.93 3.66,-1.147 5.78,-0.634c2.055,0.495 3.643,1.591 4.772,3.254c1.131,1.662 1.474,3.489 0.979,5.543c-0.52,2.155 -1.643,3.701 -3.406,4.664c-1.757,0.93 -3.662,1.147 -5.749,0.643c-2.12,-0.512 -3.716,-1.574 -4.856,-3.203m13.142,6.95c2.884,-1.763 4.728,-4.381 5.548,-7.781c0.829,-3.433 0.385,-6.605 -1.37,-9.522c-1.721,-2.91 -4.33,-4.786 -7.831,-5.632c-3.535,-0.853 -6.715,-0.374 -9.605,1.422c-2.859,1.804 -4.702,4.422 -5.531,7.857c-0.82,3.399 -0.376,6.571 1.353,9.446c1.761,2.883 4.372,4.76 7.907,5.613c3.501,0.846 6.679,0.366 9.529,-1.403" id="path166"/>
     </g>
     <g id="g168">
      <path fill="#d15454" fill-rule="nonzero" d="m170.865112,218.885359c1.494,6.709 -2.143,11.479 -6.154,13.072c-4.011,1.594 -8.184,0.196 -10.91,-3.558c-2.726,3.753 -6.901,5.15 -10.911,3.559c-4.01,-1.593 -7.646,-6.364 -6.152,-13.071c1.038,-4.667 4.276,-9.144 9.362,-12.946c3.806,-2.846 7.261,-4.304 7.406,-4.365c0.095,-0.04 0.194,-0.059 0.295,-0.059c0.101,0 0.201,0.019 0.296,0.059c0.145,0.061 3.6,1.519 7.406,4.365c5.085,3.801 8.322,8.278 9.362,12.944" id="path170"/>
     </g>
     <g id="g172">
      <path fill="#553457" fill-rule="nonzero" d="m219.287216,159.099455c0,1.794 -1.454,3.248 -3.248,3.248c-1.793,0 -3.247,-1.454 -3.247,-3.248c0,-3.73 -3.035,-6.765 -6.765,-6.765c-3.729,0 -6.763,3.035 -6.763,6.765c0,1.794 -1.454,3.248 -3.248,3.248c-1.793,0 -3.247,-1.454 -3.247,-3.248c0,-6.158 4.225,-11.334 9.925,-12.818c-1.399,-24.682 -21.118,-44.531 -45.74,-46.148l0,40.827c0,0.116 -0.023,0.225 -0.034,0.338c3.451,0.713 6.706,2.576 9.12,5.611l6.598,8.293c4.765,5.99 0.499,14.833 -7.155,14.833l-23.554,0c-7.654,0 -11.919,-8.843 -7.154,-14.833l6.597,-8.293c2.414,-3.035 5.67,-4.898 9.121,-5.611c-0.012,-0.113 -0.034,-0.222 -0.034,-0.338l0,-40.826c-24.622,1.619 -44.339,21.467 -45.738,46.147c5.7,1.484 9.927,6.66 9.927,12.818c0,1.794 -1.454,3.248 -3.248,3.248c-1.794,0 -3.247,-1.454 -3.247,-3.248c0,-3.73 -3.035,-6.765 -6.765,-6.765c-3.73,0 -6.765,3.035 -6.765,6.765c0,1.794 -1.453,3.248 -3.247,3.248c-1.794,0 -3.248,-1.454 -3.248,-3.248c0,-6.215 4.305,-11.43 10.085,-12.859c1.487,-29.321 25.809,-52.719 55.492,-52.721c0.001,0 0.001,0 0.001,0c0,0 0,0 0.001,0c0,0 0.001,0 0.001,0c29.685,0 54.008,23.399 55.495,52.721c5.78,1.429 10.084,6.644 10.084,12.859" id="path174"/>
     </g>
    </g>
   </g>
  </g>
 </g>
</svg>